<svg width="30" height="30" viewBox="0 0 30 30" fill="none" xmlns="http://www.w3.org/2000/svg">
<path fill-rule="evenodd" clip-rule="evenodd" d="M13.96 8.06667H13.2667C11.0649 8.06667 9.28 9.85156 9.28 12.0533C9.28 14.2551 11.0649 16.04 13.2667 16.04H13.96V19.8533H11.36C10.7856 19.8533 10.32 20.319 10.32 20.8933C10.32 21.4677 10.7856 21.9333 11.36 21.9333H13.96V22.8C13.96 23.3744 14.4256 23.84 15 23.84C15.5744 23.84 16.04 23.3744 16.04 22.8V21.9333H16.7333C18.9351 21.9333 20.72 20.1484 20.72 17.9467C20.72 15.7449 18.9351 13.96 16.7333 13.96H16.04V10.1467H18.64C19.2144 10.1467 19.68 9.68104 19.68 9.10667C19.68 8.53229 19.2144 8.06667 18.64 8.06667H16.04V7.2C16.04 6.62562 15.5744 6.16 15 6.16C14.4256 6.16 13.96 6.62562 13.96 7.2V8.06667ZM16.04 16.04V19.8533H16.7333C17.7864 19.8533 18.64 18.9997 18.64 17.9467C18.64 16.8936 17.7864 16.04 16.7333 16.04H16.04ZM13.96 13.96V10.1467H13.2667C12.2136 10.1467 11.36 11.0003 11.36 12.0533C11.36 13.1064 12.2136 13.96 13.2667 13.96H13.96Z" fill="#FF8A76"/>
<path fill-rule="evenodd" clip-rule="evenodd" d="M15 25.92C21.0309 25.92 25.92 21.0309 25.92 15C25.92 8.96905 21.0309 4.08 15 4.08C8.96905 4.08 4.08 8.96905 4.08 15C4.08 21.0309 8.96905 25.92 15 25.92ZM15 28C22.1797 28 28 22.1797 28 15C28 7.8203 22.1797 2 15 2C7.8203 2 2 7.8203 2 15C2 22.1797 7.8203 28 15 28Z" fill="#FF8A76"/>
</svg>
