<svg width="30" height="30" viewBox="0 0 30 30" fill="none" xmlns="http://www.w3.org/2000/svg">
<path fill-rule="evenodd" clip-rule="evenodd" d="M4.59748 8.73643C5.75583 9.08643 6.91344 9.22643 8.0718 9.22643C10.381 9.22643 12.6901 8.66982 14.9993 8.11321C17.3088 7.55652 19.6182 6.99982 21.9278 7C23.3828 7 24.8385 7.22107 26.2931 7.80214C26.7285 7.97607 26.9996 8.40321 27 8.85464V20.185C27 20.8454 26.436 21.3211 25.7906 21.3211C25.6631 21.3211 25.5326 21.3025 25.4025 21.2632C24.2442 20.9132 23.0866 20.7732 21.9282 20.7732C19.6188 20.7732 17.3094 21.3299 15 21.8866C12.6906 22.4433 10.3812 23 8.0718 23C6.61682 23 5.16109 22.7789 3.70649 22.1975C3.27112 22.0239 3 21.5964 3 21.1454V9.81464C3 9.15429 3.56399 8.67857 4.20936 8.67857C4.33685 8.67857 4.46735 8.69714 4.59748 8.73643ZM21.928 5C23.5917 5.00002 25.3058 5.25406 27.0351 5.94485C28.2644 6.43597 28.999 7.62214 29 8.85298V20.185C29 22.1254 27.3565 23.3211 25.7906 23.3211C25.4681 23.3211 25.1428 23.274 24.8245 23.1779C23.8823 22.8932 22.9229 22.7732 21.9282 22.7732C19.8978 22.7732 17.823 23.2634 15.4687 23.8309L15.3635 23.8563C13.1256 24.3959 10.6202 25 8.0718 25C6.408 25 4.6937 24.746 2.96416 24.0546C1.73421 23.5635 1 22.376 1 21.1454V9.81464C1 7.87422 2.64349 6.67857 4.20936 6.67857C4.5319 6.67857 4.8572 6.72568 5.17553 6.82179C6.11769 7.10646 7.07711 7.22643 8.0718 7.22643C10.1022 7.22643 12.1769 6.73625 14.5311 6.16877C14.566 6.16037 14.6009 6.15195 14.6359 6.14352C16.8738 5.60392 19.3794 4.99983 21.928 5ZM14.3837 16.1073C14.5949 16.3487 14.8173 16.4286 14.9998 16.4286C15.1821 16.4286 15.4046 16.3488 15.6159 16.1074C15.8305 15.8621 15.9998 15.4766 15.9998 15C15.9998 14.5235 15.8306 14.138 15.6159 13.8926C15.4047 13.6512 15.1822 13.5714 14.9998 13.5714C14.8174 13.5714 14.5949 13.6512 14.3837 13.8926C14.169 14.138 13.9999 14.5235 13.9999 15C13.9999 15.4764 14.169 15.862 14.3837 16.1073ZM11.9999 15C11.9999 16.8932 13.3427 18.4286 14.9998 18.4286C16.6562 18.4286 17.9998 16.8939 17.9998 15C17.9998 13.1064 16.6565 11.5714 14.9998 11.5714C13.3431 11.5714 11.9999 13.1064 11.9999 15Z" fill="#42B883"/>
</svg>
