<svg width="16" height="16" viewBox="0 0 16 16" fill="none" xmlns="http://www.w3.org/2000/svg">
<path fill-rule="evenodd" clip-rule="evenodd" d="M13.3332 13.0333C13.4269 12.934 13.5179 12.8321 13.606 12.7277C14.6836 11.4511 15.3332 9.80142 15.3332 8C15.3332 3.94991 12.0499 0.666668 7.99984 0.666668C6.19841 0.666668 4.5487 1.31621 3.27212 2.39386C3.16774 2.48197 3.06586 2.57295 2.96659 2.66667C2.8637 2.7638 2.76363 2.86387 2.6665 2.96675C2.47515 3.16944 2.29522 3.38304 2.12775 3.60651C1.21009 4.83103 0.666504 6.35203 0.666504 8C0.666504 12.0501 3.94975 15.3333 7.99984 15.3333C9.64781 15.3333 11.1688 14.7897 12.3933 13.8721C12.6168 13.7046 12.8304 13.5247 13.0331 13.3333C13.136 13.2362 13.236 13.1361 13.3332 13.0333ZM12.4221 11.5438C13.2019 10.5725 13.6665 9.34145 13.6665 8C13.6665 4.87039 11.1295 2.33333 7.99984 2.33333C6.65838 2.33333 5.42729 2.79798 4.45602 3.57776L12.4221 11.5438ZM3.32185 4.80061L11.1992 12.678C10.2885 13.3025 9.18784 13.6667 7.99984 13.6667C4.87022 13.6667 2.33317 11.1296 2.33317 8C2.33317 6.812 2.69738 5.71131 3.32185 4.80061Z" fill="white"/>
</svg>
