<svg width="18" height="18" viewBox="0 0 18 18" fill="none" xmlns="http://www.w3.org/2000/svg">
<path fill-rule="evenodd" clip-rule="evenodd" d="M9.47532 11.1H15.5C15.6149 11.1 15.7252 11.0543 15.8064 10.9731C15.8877 10.8918 15.9333 10.7816 15.9333 10.6667V2.86668C15.9333 2.75175 15.8877 2.64153 15.8064 2.56027C15.7252 2.479 15.6149 2.43335 15.5 2.43335H2.50001C2.38508 2.43335 2.27486 2.479 2.1936 2.56027C2.11233 2.64153 2.06668 2.75175 2.06668 2.86668V10.6667C2.06668 10.7816 2.11233 10.8918 2.1936 10.9731C2.27486 11.0543 2.38508 11.1 2.50001 11.1H6.40001V13.5603L9.47532 11.1ZM4.66668 17.1667V12.8333H2.50001C1.92537 12.8333 1.37427 12.6051 0.967945 12.1987C0.561617 11.7924 0.333344 11.2413 0.333344 10.6667V2.86668C0.333344 2.29204 0.561617 1.74094 0.967945 1.33461C1.37427 0.928285 1.92537 0.700012 2.50001 0.700012H15.5C16.0746 0.700012 16.6257 0.928285 17.0321 1.33461C17.4384 1.74094 17.6667 2.29204 17.6667 2.86668V10.6667C17.6667 11.2413 17.4384 11.7924 17.0321 12.1987C16.6257 12.6051 16.0746 12.8333 15.5 12.8333H10.0833L4.66668 17.1667Z" fill="white"/>
<path d="M4.66668 5.9H6.40001V7.63333H4.66668V5.9Z" fill="white"/>
<path d="M8.13334 5.9H9.86668V7.63333H8.13334V5.9Z" fill="white"/>
<path d="M11.6 5.9H13.3333V7.63333H11.6V5.9Z" fill="white"/>
</svg>
