<svg width="24" height="24" viewBox="0 0 24 24" fill="none" xmlns="http://www.w3.org/2000/svg">
<path d="M6.7225 23.76C5.1709 23.76 3.7177 23.094 2.6689 22.032C0.634902 19.9728 0.0685028 16.3788 2.9197 13.4928L14.6173 1.64882C15.8029 0.448816 17.3113 -0.0155841 18.7549 0.376816C20.1745 0.760816 21.3361 1.93802 21.7165 3.37442C22.1029 4.83842 21.6457 6.36602 20.4613 7.56602L9.2737 18.894C8.6353 19.5408 7.9129 19.9236 7.1881 20.0004C6.4693 20.0772 5.7841 19.8444 5.3041 19.3584C4.4353 18.4752 4.3105 16.818 5.7577 15.354L13.6153 7.39802C13.9381 7.07162 14.4613 7.07162 14.7841 7.39802C15.1069 7.72442 15.1069 8.25482 14.7841 8.58122L6.9253 16.5384C6.2461 17.2248 6.1837 17.8812 6.4729 18.1752C6.6001 18.3024 6.7921 18.3612 7.0141 18.336C7.3537 18.3012 7.7413 18.0768 8.1049 17.7108L19.2925 6.38402C20.0605 5.60642 20.3545 4.69202 20.1205 3.81002C20.0035 3.37871 19.7771 2.98493 19.4632 2.66683C19.1493 2.34874 18.7586 2.11712 18.3289 1.99442C17.4577 1.75802 16.5529 2.05682 15.7849 2.83442L4.0873 14.6784C1.9081 16.8852 2.4301 19.4256 3.8365 20.85C5.2441 22.2744 7.7509 22.8048 9.9313 20.5956L21.6289 8.75162C21.7052 8.67404 21.7961 8.61243 21.8965 8.57038C21.9968 8.52832 22.1045 8.50666 22.2133 8.50666C22.3221 8.50666 22.4298 8.52832 22.5301 8.57038C22.6305 8.61243 22.7214 8.67404 22.7977 8.75162C22.953 8.90961 23.04 9.12228 23.04 9.34382C23.04 9.56535 22.953 9.77802 22.7977 9.93602L11.1001 21.78C9.7213 23.1744 8.1769 23.76 6.7225 23.76Z" fill="#E14ECA"/>
</svg>
