<svg width="18" height="16" viewBox="0 0 18 16" fill="none" xmlns="http://www.w3.org/2000/svg">
<path d="M10.5523 9.76971C10.1187 10.2057 9.53065 10.4506 8.91745 10.4506C8.84953 10.4506 8.78265 10.4475 8.71638 10.4417L11.2206 7.92361C11.2264 7.99024 11.2295 8.05771 11.2295 8.12579C11.2295 8.74238 10.9859 9.33371 10.5523 9.76971Z" fill="white"/>
<path fill-rule="evenodd" clip-rule="evenodd" d="M15.6885 0.0485994L16.5704 0.934533C16.5858 0.949956 16.5979 0.96827 16.6062 0.98843C16.6146 1.00859 16.6188 1.0302 16.6188 1.05202C16.6188 1.07384 16.6146 1.09545 16.6062 1.11561C16.5979 1.13577 16.5858 1.15409 16.5704 1.16951L1.86895 15.9514C1.83798 15.9825 1.79599 16 1.75221 16C1.70843 16 1.66644 15.9825 1.63547 15.9514L0.754199 15.0653C0.723251 15.0341 0.705867 14.9919 0.705867 14.9479C0.705867 14.9039 0.723251 14.8616 0.754199 14.8305L2.93807 12.6354C1.83915 11.6387 0.899529 10.3141 0.119206 8.66134C0.0407103 8.4942 0 8.31166 0 8.12683C0 7.94199 0.0407103 7.75945 0.119206 7.59232C2.07208 3.43665 5.03235 1.35882 9.00003 1.35882C10.5539 1.35882 11.9534 1.67869 13.1983 2.31844L15.455 0.0485994C15.486 0.0174806 15.528 0 15.5718 0C15.6156 0 15.6575 0.0174806 15.6885 0.0485994ZM5.75584 6.32539C5.44663 6.8745 5.28414 7.49477 5.2842 8.12579C5.28332 8.72597 5.43027 9.31703 5.71193 9.84618L6.71562 8.83695C6.58601 8.42993 6.5704 7.99488 6.6705 7.57953C6.77061 7.16419 6.98255 6.78459 7.28309 6.48239C7.58362 6.1802 7.96113 5.96708 8.3742 5.86642C8.78726 5.76577 9.21992 5.78146 9.6247 5.91179L10.6284 4.90255C10.0748 4.6054 9.45405 4.4575 8.8267 4.47326C8.19935 4.48903 7.58675 4.66791 7.04858 4.99249C6.51042 5.31708 6.06504 5.77629 5.75584 6.32539Z" fill="white"/>
<path d="M15.2861 3.82588C16.2892 4.79665 17.1541 6.05144 17.8808 7.59027C17.9593 7.7574 18 7.93994 18 8.12478C18 8.30961 17.9593 8.49216 17.8808 8.65929C15.9279 12.815 12.9676 14.8928 8.99995 14.8928C7.56619 14.8928 6.26387 14.6204 5.09297 14.0756L7.61684 11.5377C8.27251 11.79 8.98678 11.8459 9.67336 11.6987C10.3599 11.5515 10.9895 11.2076 11.4858 10.7085C11.9822 10.2093 12.3243 9.57635 12.4706 8.88597C12.617 8.1956 12.5614 7.47738 12.3105 6.81809L15.2861 3.82588Z" fill="white"/>
</svg>
