<svg width="30" height="30" viewBox="0 0 30 30" fill="none" xmlns="http://www.w3.org/2000/svg">
<path fill-rule="evenodd" clip-rule="evenodd" d="M15 30C6.71531 30 0 23.2847 0 15C0 6.71531 6.71531 0 15 0C23.2847 0 30 6.71531 30 15C30 23.2847 23.2847 30 15 30ZM21.0938 17.9569C21.0938 15.5916 19.6162 14.2556 16.1597 13.4231V9.26062C17.2284 9.48 18.2512 9.94031 19.2516 10.6631L20.5256 8.60438C19.2707 7.68519 17.7967 7.1111 16.2506 6.93937V5.625H14.2725V6.89531C11.43 7.11469 9.49781 8.73562 9.49781 11.1009C9.49781 13.5759 11.0437 14.7806 14.3634 15.6131V19.9069C12.885 19.6875 11.6578 19.0303 10.3612 18.0225L8.90625 20.0156C10.4637 21.2146 12.3194 21.9648 14.2725 22.185V24.375H16.2506V22.2066C19.1381 21.9656 21.0938 20.3662 21.0938 17.9569ZM14.3625 12.9628C12.6122 12.4594 12.1809 11.8678 12.1809 10.9472C12.1809 9.98438 12.9309 9.2175 14.3634 9.10781L14.3625 12.9628ZM18.4106 18.1097C18.4106 19.1616 17.5922 19.8844 16.1597 19.9941V16.0294C17.9334 16.5338 18.4106 17.1244 18.4106 18.1106V18.1097Z" fill="#E14ECA"/>
</svg>
