<svg width="18" height="22" viewBox="0 0 18 22" fill="none" xmlns="http://www.w3.org/2000/svg">
<path d="M9.20925 13.8072C8.51513 13.8072 8.11012 14.4529 8.11012 15.3175C8.11012 16.1876 8.5275 16.8025 9.216 16.8025C9.91013 16.8025 10.3084 16.1557 10.3084 15.2911C10.3084 14.4925 9.91687 13.8072 9.20925 13.8072Z" fill="#E14ECA"/>
<path d="M11.25 0H2.25C1.65326 0 1.08097 0.231785 0.65901 0.644365C0.237053 1.05694 0 1.61652 0 2.2V19.8C0 20.3835 0.237053 20.9431 0.65901 21.3556C1.08097 21.7682 1.65326 22 2.25 22H15.75C16.3467 22 16.919 21.7682 17.341 21.3556C17.7629 20.9431 18 20.3835 18 19.8V6.6L11.25 0ZM5.79937 16.9994C5.32012 17.3888 4.59225 17.5725 3.70237 17.5725C3.168 17.5725 2.79112 17.5395 2.53462 17.5065V13.1384C2.99472 13.0736 3.45918 13.0431 3.924 13.0471C4.788 13.0471 5.34825 13.1989 5.78587 13.5223C6.25837 13.8655 6.55537 14.4133 6.55537 15.1965C6.55537 16.049 6.23812 16.6364 5.79937 16.9994ZM9.16313 17.6C7.81313 17.6 7.0245 16.6034 7.0245 15.3362C7.0245 14.0041 7.89413 13.0086 9.23738 13.0086C10.6335 13.0086 11.3962 14.0305 11.3962 15.2581C11.3951 16.7156 10.4906 17.6 9.16313 17.6ZM14.4 16.7618C14.7094 16.7618 15.0536 16.6947 15.2572 16.6166L15.4125 17.4009C15.2235 17.4933 14.7983 17.5923 14.2459 17.5923C12.6743 17.5923 11.8642 16.6364 11.8642 15.3692C11.8642 13.8523 12.9701 13.0086 14.3471 13.0086C14.8804 13.0086 15.2842 13.1142 15.4665 13.2066L15.2572 14.0052C14.9834 13.8945 14.6896 13.8384 14.3933 13.8402C13.5765 13.8402 12.942 14.322 12.942 15.312C12.942 16.2019 13.482 16.7618 14.4 16.7618ZM10.125 7.7V2.2L15.75 7.7H10.125Z" fill="#E14ECA"/>
<path d="M4.032 13.8193C3.80363 13.8193 3.65512 13.8391 3.56737 13.8589V16.7684C3.65512 16.7882 3.79688 16.7882 3.924 16.7882C4.8555 16.7948 5.46187 16.2943 5.46187 15.2317C5.46862 14.3077 4.91625 13.8193 4.032 13.8193Z" fill="#E14ECA"/>
</svg>
