<svg width="18" height="14" viewBox="0 0 18 14" fill="none" xmlns="http://www.w3.org/2000/svg">
<path d="M6.60536 7C6.60536 7.63782 6.84895 8.24952 7.28255 8.70053C7.71614 9.15154 8.30422 9.40491 8.91742 9.40491C9.53062 9.40491 10.1187 9.15154 10.5523 8.70053C10.9859 8.24952 11.2295 7.63782 11.2295 7C11.2295 6.36218 10.9859 5.75048 10.5523 5.29947C10.1187 4.84847 9.53062 4.59509 8.91742 4.59509C8.30422 4.59509 7.71614 4.84847 7.28255 5.29947C6.84895 5.75048 6.60536 6.36218 6.60536 7ZM17.8808 6.44601C15.9238 2.15798 12.9656 0 8.99999 0C5.03233 0 2.0762 2.15798 0.119206 6.44816C0.0407101 6.62105 0 6.80987 0 7.00107C0 7.19227 0.0407101 7.3811 0.119206 7.55399C2.0762 11.842 5.0344 14 8.99999 14C12.9677 14 15.9238 11.842 17.8808 7.55184C18.0397 7.20399 18.0397 6.80031 17.8808 6.44601ZM8.91742 10.7791C6.91088 10.7791 5.28418 9.08712 5.28418 7C5.28418 4.91288 6.91088 3.22086 8.91742 3.22086C10.924 3.22086 12.5507 4.91288 12.5507 7C12.5507 9.08712 10.924 10.7791 8.91742 10.7791Z" fill="white"/>
</svg>
