<svg width="16" height="16" viewBox="0 0 16 16" fill="none" xmlns="http://www.w3.org/2000/svg">
<path d="M14.2816 9.909L14.9118 9.55433L14.2152 8.27067L13.585 8.62533C13.1017 8.89758 12.6736 9.26066 12.3232 9.69533L9.44031 8L12.3236 6.30467C12.6739 6.73934 13.1021 7.10242 13.5853 7.37467L14.2155 7.72933L14.9122 6.44567L14.282 6.091C14.0289 5.94871 13.798 5.76897 13.5967 5.55767L15.3332 4.535L14.6129 3.26667L12.8778 4.286C12.7982 4.00271 12.7605 3.70894 12.7658 3.41433L12.7793 2.681L11.3388 2.65367L11.3254 3.387C11.3152 3.94871 11.4095 4.50732 11.6033 5.03333L8.72008 6.72967V3.33933C9.26485 3.24759 9.78762 3.05157 10.2607 2.76167L10.8775 2.38333L10.134 1.127L9.51725 1.50533C9.26932 1.65712 9.00068 1.77069 8.72008 1.84233V0H7.2796V1.84233C6.99899 1.77069 6.73035 1.65712 6.48243 1.50533L5.86564 1.127L5.12216 2.38333L5.73894 2.76167C6.21205 3.05157 6.73482 3.24759 7.2796 3.33933V6.72967L4.39636 5.03333C4.59076 4.50699 4.68552 3.94791 4.67561 3.38567L4.66219 2.65233L3.22171 2.67967L3.23514 3.413C3.2405 3.7076 3.20277 4.00138 3.12317 4.28467L1.38674 3.26667L0.666504 4.53667L2.40326 5.558C2.20202 5.7693 1.9711 5.94904 1.71805 6.09133L1.08784 6.44567L1.78451 7.72933L2.41472 7.37467C2.89795 7.10242 3.32609 6.73934 3.67644 6.30467L6.55936 8L3.67612 9.69533C3.32576 9.26066 2.89762 8.89758 2.41439 8.62533L1.78451 8.27067L1.08784 9.55433L1.71805 9.909C1.9711 10.0513 2.20202 10.231 2.40326 10.4423L0.666504 11.4667L1.38674 12.7367L3.1235 11.7157C3.20309 11.999 3.24083 12.2927 3.23546 12.5873L3.22204 13.3207L4.66252 13.348L4.67594 12.6147C4.68578 12.0523 4.59091 11.4931 4.39636 10.9667L7.2796 9.27033V12.6607C6.73482 12.7524 6.21205 12.9484 5.73894 13.2383L5.12216 13.6167L5.86564 14.873L6.48243 14.4947C6.73035 14.3429 6.99899 14.2293 7.2796 14.1577V16H8.72008V14.1577C9.00068 14.2293 9.26932 14.3429 9.51725 14.4947L10.134 14.873L10.8775 13.6167L10.2607 13.2383C9.78762 12.9484 9.26485 12.7524 8.72008 12.6607V9.27033L11.6033 10.9667C11.4089 11.493 11.3142 12.0521 11.3241 12.6143L11.3375 13.3477L12.778 13.3203L12.7645 12.587C12.7595 12.2919 12.7976 11.9977 12.8778 11.714L14.6129 12.735L15.3332 11.4667L13.5981 10.4437C13.7987 10.232 14.0291 10.0518 14.2816 9.909Z" fill="white"/>
</svg>
