<svg width="38" height="34" viewBox="0 0 38 34" fill="none" xmlns="http://www.w3.org/2000/svg">
<path d="M21.8872 2.00004L30.6665 2.00004C31.587 2.00004 32.3332 2.74623 32.3332 3.66671C32.3332 4.58718 31.587 5.33338 30.6665 5.33338L21.8872 5.33337C21.5945 5.83942 21.1725 6.26137 20.6665 6.5541V30.3334H35.6665C36.587 30.3334 37.3332 31.0796 37.3332 32C37.3332 32.9205 36.587 33.6667 35.6665 33.6667H2.33317C1.4127 33.6667 0.666504 32.9205 0.666504 32C0.666504 31.0796 1.4127 30.3334 2.33317 30.3334H17.3332V6.5541C16.8271 6.26137 16.4052 5.83942 16.1124 5.33337H7.33317C6.41269 5.33337 5.6665 4.58718 5.6665 3.66671C5.6665 2.74623 6.4127 2.00004 7.33317 2.00004L16.1124 2.00004C16.6888 1.0037 17.766 0.333374 18.9998 0.333374C20.2336 0.333374 21.3109 1.0037 21.8872 2.00004Z" fill="#42B883"/>
<path fill-rule="evenodd" clip-rule="evenodd" d="M7.33316 8.16246L12.4484 18.7716L12.2633 19.3907C12.0343 20.157 11.6909 20.8802 11.2359 21.5108C10.7809 22.1413 10.2126 22.6808 9.54359 23.0648C8.87042 23.4513 8.11718 23.6667 7.33316 23.6667C6.54913 23.6667 5.79589 23.4513 5.12272 23.0648C4.45371 22.6808 3.88537 22.1413 3.4304 21.5108C2.97542 20.8803 2.63203 20.1571 2.40296 19.3907L2.21792 18.7716L7.33316 8.16246ZM5.80868 18.9993C5.90582 19.2092 6.0156 19.3969 6.13347 19.5603C6.34856 19.8583 6.5757 20.0554 6.78217 20.1739C6.98447 20.2901 7.16957 20.3333 7.33316 20.3333C7.49674 20.3333 7.68184 20.2901 7.88414 20.1739C8.09061 20.0554 8.31776 19.8583 8.53284 19.5603C8.65071 19.3969 8.76048 19.2092 8.85762 18.9993L7.33315 15.8375L5.80868 18.9993Z" fill="#42B883"/>
<path fill-rule="evenodd" clip-rule="evenodd" d="M35.7817 18.7716L30.6665 8.16246L25.5512 18.7716L25.7363 19.3907C25.9654 20.1571 26.3087 20.8803 26.7637 21.5108C27.2187 22.1413 27.787 22.6808 28.456 23.0648C29.1292 23.4513 29.8825 23.6667 30.6665 23.6667C31.4505 23.6667 32.2038 23.4513 32.8769 23.0648C33.5459 22.6808 34.1143 22.1413 34.5692 21.5108C35.0242 20.8802 35.3676 20.157 35.5967 19.3907L35.7817 18.7716ZM29.4668 19.5603C29.3489 19.3969 29.2391 19.2092 29.142 18.9993L30.6665 15.8375L32.1909 18.9993C32.0938 19.2092 31.984 19.3969 31.8662 19.5603C31.6511 19.8583 31.4239 20.0554 31.2175 20.1739C31.0152 20.2901 30.8301 20.3333 30.6665 20.3333C30.5029 20.3333 30.3178 20.2901 30.1155 20.1739C29.909 20.0554 29.6819 19.8583 29.4668 19.5603Z" fill="#42B883"/>
</svg>
