<svg width="30" height="30" viewBox="0 0 30 30" fill="none" xmlns="http://www.w3.org/2000/svg">
<path fill-rule="evenodd" clip-rule="evenodd" d="M1.66667 0C2.58714 0 3.33333 0.746192 3.33333 1.66667V26.6667H28.3333C29.2538 26.6667 30 27.4129 30 28.3333C30 29.2538 29.2538 30 28.3333 30H3.33333C1.49238 30 0 28.5076 0 26.6667V1.66667C0 0.746192 0.746192 0 1.66667 0ZM30 4.33728V11.4912C30 12.4117 29.2538 13.1579 28.3333 13.1579C27.531 13.1579 26.861 12.5909 26.7023 11.8358L23.2667 16.7673C22.2571 18.2164 20.2925 18.6266 18.7874 17.7025L13.4383 14.4179L7.67899 22.2991C7.13589 23.0423 6.09315 23.2045 5.34997 22.6614C4.60679 22.1183 4.44459 21.0756 4.98768 20.3324L10.747 12.4512C11.772 11.0487 13.7022 10.6684 15.1826 11.5774L20.5316 14.8619L24.2298 9.5535L24.1467 9.5785C23.2652 9.84361 22.3357 9.34394 22.0706 8.46247C21.8055 7.581 22.3052 6.65151 23.1867 6.38641L30 4.33728Z" fill="#1D8CF8"/>
</svg>
