<svg width="18" height="20" viewBox="0 0 18 20" fill="none" xmlns="http://www.w3.org/2000/svg">
<path d="M11.9232 12.2383C11.7927 12.1979 10.9682 11.8458 11.4834 10.3618H11.476C12.8191 9.05126 13.8454 6.94236 13.8454 4.8661C13.8454 1.6736 11.6048 0 9.00082 0C6.39517 0 4.16691 1.67282 4.16691 4.8661C4.16691 6.95091 5.18751 9.06837 6.53874 10.3758C7.06545 11.6849 6.12361 12.1707 5.92671 12.2391C3.19964 13.1735 0 14.8766 0 16.558V17.1884C0 19.4792 4.68788 20 9.02625 20C13.3712 20 18 19.4792 18 17.1884V16.558C18 14.8261 14.7848 13.1361 11.9232 12.2383Z" fill="#E14ECA"/>
</svg>
