<svg width="22" height="25" viewBox="0 0 22 25" fill="none" xmlns="http://www.w3.org/2000/svg">
<path d="M7 3.74988C2.90264 5.35002 0 9.33603 0 14C0 20.0751 4.92487 25 11 25C17.0751 25 22 20.0751 22 14C22 9.33603 19.0974 5.35002 15 3.74988V8.25469C16.8135 9.51963 18 11.6213 18 14C18 17.866 14.866 21 11 21C7.13401 21 4 17.866 4 14C4 11.6213 5.18652 9.51963 7 8.25469V3.74988Z" fill="white"/>
<path d="M9 2.5C9 1.39543 9.89543 0.5 11 0.5C12.1046 0.5 13 1.39543 13 2.5V11C13 12.1046 12.1046 13 11 13C9.89543 13 9 12.1046 9 11V2.5Z" fill="white"/>
</svg>
