<svg width="18" height="17" viewBox="0 0 18 17" fill="none" xmlns="http://www.w3.org/2000/svg">
<path d="M1.20004 0.699951C0.721394 0.699951 0.333374 1.08797 0.333374 1.56662C0.333374 2.04526 0.721394 2.43328 1.20004 2.43328H2.93337C3.41202 2.43328 3.80004 2.04526 3.80004 1.56662C3.80004 1.08797 3.41202 0.699951 2.93337 0.699951H1.20004Z" fill="white"/>
<path d="M6.40004 0.699951C5.92139 0.699951 5.53337 1.08797 5.53337 1.56662C5.53337 2.04526 5.92139 2.43328 6.40004 2.43328H16.8C17.2787 2.43328 17.6667 2.04526 17.6667 1.56662C17.6667 1.08797 17.2787 0.699951 16.8 0.699951H6.40004Z" fill="white"/>
<path d="M5.53337 5.03328C5.53337 4.55464 5.92139 4.16662 6.40004 4.16662H16.8C17.2787 4.16662 17.6667 4.55464 17.6667 5.03328C17.6667 5.51193 17.2787 5.89995 16.8 5.89995H6.40004C5.92139 5.89995 5.53337 5.51193 5.53337 5.03328Z" fill="white"/>
<path d="M1.20004 4.16662C0.721394 4.16662 0.333374 4.55464 0.333374 5.03328C0.333374 5.51193 0.721394 5.89995 1.20004 5.89995H2.93337C3.41202 5.89995 3.80004 5.51193 3.80004 5.03328C3.80004 4.55464 3.41202 4.16662 2.93337 4.16662H1.20004Z" fill="white"/>
<path d="M5.53337 8.49995C5.53337 8.0213 5.92139 7.63328 6.40004 7.63328H16.8C17.2787 7.63328 17.6667 8.0213 17.6667 8.49995C17.6667 8.9786 17.2787 9.36662 16.8 9.36662H6.40004C5.92139 9.36662 5.53337 8.9786 5.53337 8.49995Z" fill="white"/>
<path d="M1.20004 7.63328C0.721394 7.63328 0.333374 8.0213 0.333374 8.49995C0.333374 8.9786 0.721394 9.36662 1.20004 9.36662H2.93337C3.41202 9.36662 3.80004 8.9786 3.80004 8.49995C3.80004 8.0213 3.41202 7.63328 2.93337 7.63328H1.20004Z" fill="white"/>
<path d="M5.53337 11.9666C5.53337 11.488 5.92139 11.1 6.40004 11.1H16.8C17.2787 11.1 17.6667 11.488 17.6667 11.9666C17.6667 12.4453 17.2787 12.8333 16.8 12.8333H6.40004C5.92139 12.8333 5.53337 12.4453 5.53337 11.9666Z" fill="white"/>
<path d="M1.20004 11.1C0.721394 11.1 0.333374 11.488 0.333374 11.9666C0.333374 12.4453 0.721394 12.8333 1.20004 12.8333H2.93337C3.41202 12.8333 3.80004 12.4453 3.80004 11.9666C3.80004 11.488 3.41202 11.1 2.93337 11.1H1.20004Z" fill="white"/>
<path d="M5.53337 15.4333C5.53337 14.9546 5.92139 14.5666 6.40004 14.5666H16.8C17.2787 14.5666 17.6667 14.9546 17.6667 15.4333C17.6667 15.9119 17.2787 16.3 16.8 16.3H6.40004C5.92139 16.3 5.53337 15.9119 5.53337 15.4333Z" fill="white"/>
<path d="M1.20004 14.5666C0.721394 14.5666 0.333374 14.9546 0.333374 15.4333C0.333374 15.9119 0.721394 16.3 1.20004 16.3H2.93337C3.41202 16.3 3.80004 15.9119 3.80004 15.4333C3.80004 14.9546 3.41202 14.5666 2.93337 14.5666H1.20004Z" fill="white"/>
</svg>
