<svg width="23" height="22" viewBox="0 0 23 22" fill="none" xmlns="http://www.w3.org/2000/svg">
<path d="M22.3113 9.91397L1.91131 0.313968C1.70589 0.217309 1.47726 0.180904 1.25198 0.208981C1.02669 0.237059 0.813998 0.328467 0.638587 0.47259C0.463176 0.616714 0.332247 0.80764 0.261005 1.0232C0.189762 1.23876 0.181128 1.4701 0.236106 1.69037L1.69051 7.50917L11.0001 11L1.69051 14.4908L0.236106 20.3096C0.180094 20.53 0.188007 20.7618 0.25892 20.9779C0.329833 21.194 0.460814 21.3855 0.636542 21.5298C0.812269 21.6742 1.02548 21.7656 1.25123 21.7932C1.47697 21.8209 1.70593 21.7837 1.91131 21.686L22.3113 12.086C22.5175 11.9891 22.6918 11.8355 22.8139 11.6432C22.936 11.4509 23.0008 11.2278 23.0008 11C23.0008 10.7722 22.936 10.5491 22.8139 10.3568C22.6918 10.1645 22.5175 10.0109 22.3113 9.91397Z" fill="white"/>
</svg>
