<svg width="18" height="19" viewBox="0 0 18 19" fill="none" xmlns="http://www.w3.org/2000/svg">
<path d="M8.13337 8.63337C8.13337 8.15473 8.52139 7.76671 9.00004 7.76671C9.47869 7.76671 9.86671 8.15473 9.86671 8.63337V13.8334C9.86671 14.312 9.47869 14.7 9.00004 14.7C8.52139 14.7 8.13337 14.312 8.13337 13.8334V8.63337Z" fill="white"/>
<path d="M9.00004 6.03337C9.47869 6.03337 9.86671 5.64535 9.86671 5.16671C9.86671 4.68806 9.47869 4.30004 9.00004 4.30004C8.52139 4.30004 8.13337 4.68806 8.13337 5.16671C8.13337 5.64535 8.52139 6.03337 9.00004 6.03337Z" fill="white"/>
<path fill-rule="evenodd" clip-rule="evenodd" d="M2.93337 0.833374C1.49743 0.833374 0.333374 1.99743 0.333374 3.43337V15.5667C0.333374 17.0026 1.49743 18.1667 2.93337 18.1667H15.0667C16.5026 18.1667 17.6667 17.0026 17.6667 15.5667V3.43337C17.6667 1.99743 16.5026 0.833374 15.0667 0.833374H2.93337ZM15.0667 2.56671H2.93337C2.45473 2.56671 2.06671 2.95473 2.06671 3.43337V15.5667C2.06671 16.0454 2.45473 16.4334 2.93337 16.4334H15.0667C15.5454 16.4334 15.9334 16.0454 15.9334 15.5667V3.43337C15.9334 2.95473 15.5454 2.56671 15.0667 2.56671Z" fill="white"/>
</svg>
