<svg width="20" height="21" viewBox="0 0 20 21" fill="none" xmlns="http://www.w3.org/2000/svg">
<path d="M9.9999 13.1C10.4785 13.1 10.8666 12.712 10.8666 12.2333V3.99026L11.9742 5.14602C12.3054 5.4916 12.854 5.50327 13.1996 5.1721C13.5451 4.84092 13.5568 4.2923 13.2256 3.94672L9.9999 0.58075L6.77418 3.94672C6.443 4.2923 6.45467 4.84092 6.80025 5.1721C7.14583 5.50327 7.69445 5.4916 8.02563 5.14602L9.13324 3.99026L9.13324 12.2333C9.13324 12.712 9.52126 13.1 9.9999 13.1Z" fill="white"/>
<path d="M15.6332 7.9C15.1546 7.9 14.7666 8.28802 14.7666 8.76666V17.2288L13.1777 15.8076C12.8209 15.4885 12.273 15.5191 11.9539 15.8758C11.6348 16.2326 11.6654 16.7805 12.0221 17.0996L15.6332 20.3294L19.2443 17.0996C19.6011 16.7805 19.6316 16.2326 19.3125 15.8758C18.9934 15.5191 18.4456 15.4885 18.0888 15.8076L16.4999 17.2288V8.76666C16.4999 8.28802 16.1119 7.9 15.6332 7.9Z" fill="white"/>
<path d="M3.49989 8.76666C3.49989 8.28802 3.88791 7.9 4.36656 7.9C4.84521 7.9 5.23323 8.28802 5.23323 8.76666L5.23323 17.2288L6.82212 15.8076C7.17889 15.4885 7.72678 15.5191 8.04588 15.8758C8.36497 16.2326 8.33443 16.7805 7.97767 17.0996L4.36656 20.3294L0.755456 17.0996C0.398691 16.7805 0.368153 16.2326 0.687247 15.8758C1.00634 15.5191 1.55423 15.4885 1.911 15.8076L3.49989 17.2288L3.49989 8.76666Z" fill="white"/>
</svg>
