<svg width="30" height="34" viewBox="0 0 30 34" fill="none" xmlns="http://www.w3.org/2000/svg">
<path fill-rule="evenodd" clip-rule="evenodd" d="M15 3.66666C12.2386 3.66666 10 5.90524 10 8.66666C10 11.4281 12.2386 13.6667 15 13.6667C17.7614 13.6667 20 11.4281 20 8.66666C20 5.90524 17.7614 3.66666 15 3.66666ZM6.66667 8.66666C6.66667 4.06429 10.3976 0.333328 15 0.333328C19.6024 0.333328 23.3333 4.06429 23.3333 8.66666C23.3333 13.269 19.6024 17 15 17C10.3976 17 6.66667 13.269 6.66667 8.66666ZM2.44078 22.7741C4.00358 21.2113 6.1232 20.3333 8.33333 20.3333H21.6667C23.8768 20.3333 25.9964 21.2113 27.5592 22.7741C29.122 24.3369 30 26.4565 30 28.6667V32C30 32.9205 29.2538 33.6667 28.3333 33.6667C27.4129 33.6667 26.6667 32.9205 26.6667 32V28.6667C26.6667 27.3406 26.1399 26.0688 25.2022 25.1311C24.2645 24.1934 22.9927 23.6667 21.6667 23.6667H8.33333C7.00725 23.6667 5.73548 24.1934 4.7978 25.1311C3.86012 26.0688 3.33333 27.3406 3.33333 28.6667V32C3.33333 32.9205 2.58714 33.6667 1.66667 33.6667C0.746192 33.6667 0 32.9205 0 32V28.6667C0 26.4565 0.877973 24.3369 2.44078 22.7741Z" fill="#42B883"/>
</svg>
